<svg viewBox="0 0 100 100" xmlns="http://www.w3.org/2000/svg">
  <path fill="currentColor" d="M 45 40 L 40 10 L 45 10 L 48 35 L 50 25 L 52 35 L 55 10 L 60 10 L 55 40 Z" />
  <path fill="currentColor" d="M 40 45 L 10 40 L 10 45 L 35 50 L 10 55 L 10 60 L 40 55 Z" />
  <path fill="currentColor" d="M 60 45 L 90 40 L 90 45 L 65 50 L 90 55 L 90 60 L 60 55 Z" />
  <path fill="currentColor" d="M 45 60 L 35 90 L 40 90 L 48 65 L 50 75 L 52 65 L 60 90 L 65 90 L 55 60 Z" />
  <ellipse cx="50" cy="50" rx="15" ry="20" fill="currentColor" />
  <circle cx="50" cy="30" r="8" fill="currentColor" />
</svg>